<svg width="80" height="80" viewBox="0 0 80 80" fill="none" xmlns="http://www.w3.org/2000/svg">
<path d="M75.4331 44.3947C70.187 43.5236 64.8012 44.1727 59.9123 46.2653L57.6345 47.2409C57.6345 47.2409 54.614 45.4693 54.2536 45.3006C52.3747 44.4184 43.1242 42.3093 42.1301 42.0014C40.1604 41.3889 38.5576 39.8895 37.7909 38.0051C43.8687 35.3615 47.09 28.529 47.6036 21.659V20.6301H50.1867C50.3717 20.6302 50.5548 20.5938 50.7257 20.523C50.8966 20.4522 51.0519 20.3485 51.1827 20.2177C51.3135 20.0869 51.4172 19.9316 51.488 19.7607C51.5588 19.5898 51.5952 19.4067 51.5951 19.2217C51.5952 19.0367 51.5588 18.8536 51.488 18.6827C51.4172 18.5118 51.3135 18.3565 51.1827 18.2257C51.0519 18.0949 50.8966 17.9911 50.7257 17.9204C50.5548 17.8496 50.3717 17.8132 50.1867 17.8133H48.4261L48.2312 15.8373C47.7734 11.1954 44.55 7.29325 40.0779 5.96763L37.5104 5.20653V4.2456C37.5104 3.87205 37.3621 3.51381 37.0979 3.24968C36.8338 2.98555 36.4755 2.83716 36.102 2.83716H28.0848C27.712 2.83716 27.3544 2.98508 27.0905 3.24847C26.8266 3.51185 26.678 3.86917 26.6773 4.242L26.6754 5.19747L24.0492 5.97685C19.595 7.29888 16.3778 11.1768 15.9014 15.7987L15.6937 17.8133H13.9689C13.1912 17.8133 12.5604 18.4442 12.5604 19.2217C12.5604 19.9993 13.1914 20.6301 13.9689 20.6301H16.6189L16.6208 21.7653C17.1287 28.5106 20.3134 35.2853 26.3215 37.9583C25.5633 39.8829 24.0347 41.3831 22.0209 42.0048C20.3098 42.5329 13.6672 43.9873 13.6672 43.9873H13.6653C12.7473 44.1909 4.67153 46.1587 3.73997 52.6839C3.17794 56.6086 2.52216 60.3333 2.52138 60.3406C2.48588 60.5431 2.49506 60.751 2.54828 60.9496C2.60151 61.1482 2.69748 61.3328 2.8295 61.4904C2.96179 61.6479 3.12696 61.7745 3.31341 61.8613C3.49986 61.9481 3.70305 61.9931 3.90872 61.9929H37.769L37.83 74.1206C37.831 74.3192 37.8739 74.5153 37.9558 74.6961C38.0378 74.877 38.1571 75.0385 38.3058 75.1701C38.6233 75.4512 39.0436 75.5756 39.4622 75.507C41.6342 75.1515 48.7845 74.6751 55.6483 76.6114C56.1086 76.7412 57.2231 76.9678 57.8729 77.0962C58.199 77.1608 58.5294 77.1779 58.8606 77.1483C58.8606 77.1483 65.6892 74.0926 75.8823 75.6283C76.7645 75.7612 77.4998 74.902 77.4998 74.0108V46.8375C77.5013 46.2513 77.2942 45.6836 76.9156 45.2361C76.537 44.7885 76.0115 44.4903 75.4331 44.3947ZM39.2775 8.66731C42.6658 9.67231 45.0792 12.5939 45.4276 16.1114L45.5964 17.8133H37.5104V8.14372L39.2775 8.66731ZM34.6936 5.65419V17.8133H29.465L29.4915 5.65419H34.6936ZM18.7042 16.0839C19.0637 12.5847 21.4762 9.67794 24.8508 8.67653L26.6692 8.13731L26.6481 17.8133H18.5264L18.7042 16.0839ZM19.4342 21.659V20.6301H44.7887L44.7906 21.5526C44.2367 28.9178 40.1012 36.3472 32.1106 36.3472C24.12 36.3472 19.9843 28.9179 19.4342 21.659ZM32.1104 39.1642C33.1686 39.1642 34.1608 39.044 35.1081 38.8506C35.6127 40.1927 36.4103 41.4054 37.4428 42.4003L32.1481 46.7L26.7683 42.3543C27.7774 41.3649 28.5556 40.1646 29.047 38.8395C30.0133 39.0414 31.0275 39.1642 32.1104 39.1642ZM18.5942 45.7775L22.2529 59.1764H13.3656V46.9879C13.8681 46.8329 17.4268 46.0461 18.5942 45.7775ZM6.52763 53.0839C6.86606 50.7181 8.732 49.1473 10.5486 48.1597V59.1762H5.57763C5.82341 57.7 6.19388 55.4186 6.52763 53.0839ZM25.1726 59.1764L21.3342 45.1173C21.9036 44.9706 23.8981 44.3058 24.3895 44.0564L31.2659 49.6087C31.5167 49.8105 31.8289 49.9205 32.1508 49.9204C32.4742 49.9209 32.7878 49.8095 33.0384 49.605C33.0384 49.605 37.8495 46.0209 37.769 46.0209V59.1764H25.1726ZM45.5662 72.2781C43.9065 72.2781 42.2329 72.3918 40.5861 72.6137V47.129C45.215 46.4083 49.9484 47.0136 54.2481 48.8548L56.9614 50.0184V74.0679C56.9615 74.0681 49.2681 72.2781 45.5662 72.2781ZM74.6829 72.6192C69.6983 71.9342 64.6145 72.2762 59.7784 73.604V49.3884L61.0219 48.8547C65.3225 47.0115 70.0614 46.4154 74.6829 47.127V72.6192Z" fill="white"/>
<path d="M50.8581 59.1764H45.2242C44.4466 59.1764 43.8158 59.8073 43.8158 60.5848C43.8158 61.3625 44.4467 61.9933 45.2242 61.9933H50.8581C51.6358 61.9933 52.2666 61.3623 52.2666 60.5848C52.2666 59.8072 51.6356 59.1764 50.8581 59.1764ZM50.8581 64.8103H45.2242C44.4466 64.8103 43.8158 65.4412 43.8158 66.2187C43.8158 66.9962 44.4467 67.6272 45.2242 67.6272H50.8581C51.6358 67.6272 52.2666 66.9962 52.2666 66.2187C52.2666 65.4412 51.6356 64.8103 50.8581 64.8103ZM69.6378 59.1764H64.0039C63.2263 59.1764 62.5955 59.8073 62.5955 60.5848C62.5955 61.3625 63.2264 61.9933 64.0039 61.9933H69.6378C70.4155 61.9933 71.0463 61.3623 71.0463 60.5848C71.0462 60.2113 70.8978 59.8531 70.6337 59.589C70.3695 59.3249 70.0113 59.1765 69.6378 59.1764ZM50.8581 53.5425H45.2242C44.4466 53.5425 43.8158 54.1734 43.8158 54.9509C43.8158 55.7284 44.4467 56.3594 45.2242 56.3594H50.8581C51.6358 56.3594 52.2666 55.7284 52.2666 54.9509C52.2666 54.1734 51.6356 53.5425 50.8581 53.5425ZM69.6378 53.5425H64.0039C63.2263 53.5425 62.5955 54.1734 62.5955 54.9509C62.5955 55.7284 63.2264 56.3594 64.0039 56.3594H69.6378C70.4155 56.3594 71.0463 55.7284 71.0463 54.9509C71.0463 54.1734 70.4155 53.5425 69.6378 53.5425ZM65.8819 64.8103H64.0039C63.2263 64.8103 62.5955 65.4412 62.5955 66.2187C62.5955 66.9962 63.2264 67.6272 64.0039 67.6272H65.8819C66.6595 67.6272 67.2903 66.9962 67.2903 66.2187C67.2903 65.4412 66.6595 64.8103 65.8819 64.8103Z" fill="white"/>
</svg>
