<svg width="80" height="80" viewBox="0 0 80 80" fill="none" xmlns="http://www.w3.org/2000/svg">
<g clip-path="url(#clip0_105_185)">
<path d="M77.4193 43.871H72.2581V7.74194C73.6813 7.74194 74.8387 6.58455 74.8387 5.16129V2.58065C74.8387 1.15738 73.6813 0 72.2581 0H7.74194C6.31867 0 5.16129 1.15738 5.16129 2.58065V5.16129C5.16129 6.58455 6.31867 7.74194 7.74194 7.74194V33.5484H2.58065C1.15738 33.5484 0 34.7058 0 36.129V38.7097C0 40.1329 1.15738 41.2903 2.58065 41.2903V80H77.4193V51.6129C78.8426 51.6129 80 50.4555 80 49.0323V46.4516C80 45.0284 78.8426 43.871 77.4193 43.871ZM61.9355 43.871V41.2903C63.3587 41.2903 64.5161 40.1329 64.5161 38.7097V36.129C64.5161 34.7058 63.3587 33.5484 61.9355 33.5484H53.4375L60.6452 26.3407L69.6774 35.373V43.871H61.9355ZM18.0645 57.1717L6.41822 41.2903H29.7121L18.0645 57.1717ZM30.9677 43.9422V74.7675L19.6648 59.3548L30.9677 43.9422ZM16.4642 59.3548L5.16129 74.7675V43.9422L16.4642 59.3548ZM18.0645 61.5379L29.7108 77.4193H6.41822L18.0645 61.5379ZM41.2903 77.4193H34.8053L41.2903 68.5755V77.4193ZM41.2903 51.6129V64.2106L33.5484 74.7675V41.2903H59.3548V43.871H41.2903C39.8671 43.871 38.7097 45.0284 38.7097 46.4516V49.0323C38.7097 50.4555 39.8671 51.6129 41.2903 51.6129ZM25.0504 33.5484L21.1794 29.6774L28.3871 22.4698V33.5484H25.0504ZM21.4012 33.5484H17.3085L19.3548 31.502L21.4012 33.5484ZM69.6774 31.7238L62.4698 24.5161L69.6774 17.3085V31.7238ZM60.6452 22.6915L53.4375 15.4839H67.8528L60.6452 22.6915ZM51.6129 17.3085L58.8206 24.5161L51.6129 31.7238V17.3085ZM49.0323 23.9819L41.8246 16.7742L49.0323 9.56653V23.9819ZM47.2077 25.8064H32.7923L40 18.5988L47.2077 25.8064ZM40 14.9496L32.7923 7.74194H47.2077L40 14.9496ZM38.1754 16.7742L30.9677 23.9819V9.56653L38.1754 16.7742ZM19.3548 27.8528L12.1472 20.6452H26.5625L19.3548 27.8528ZM30.9677 28.3871H49.0323V33.5484H30.9677V28.3871ZM69.6774 12.9032H51.6129V7.74194H69.6774V12.9032ZM7.74194 2.58065H72.2581L72.2593 5.16129H7.74194V2.58065ZM28.3871 7.74194V18.0645H10.3226V7.74194H28.3871ZM10.3226 22.4698L17.5302 29.6774L13.6593 33.5484H10.3226V22.4698ZM2.58065 36.129H61.9355L61.9367 38.7097H2.58065V36.129ZM64.5161 77.4193H54.1935V64.5161H64.5161V77.4193ZM74.8387 77.4193H67.0968V61.9355H51.6129V77.4193H43.871V51.6129H74.8387V77.4193ZM41.2903 49.0323V46.4516H77.4193L77.4206 49.0323H41.2903Z" fill="white"/>
</g>
<defs>
<clipPath id="clip0_105_185">
<rect width="80" height="80" fill="white"/>
</clipPath>
</defs>
</svg>
