<svg width="80" height="80" viewBox="0 0 80 80" fill="none" xmlns="http://www.w3.org/2000/svg">
<path fill-rule="evenodd" clip-rule="evenodd" d="M71.6667 71.6667H8.33335C6.56524 71.6667 4.86955 70.9643 3.61931 69.7141C2.36907 68.4638 1.66669 66.7682 1.66669 65V15C1.66669 13.2319 2.36907 11.5362 3.61931 10.286C4.86955 9.03575 6.56524 8.33337 8.33335 8.33337H71.6667C73.4348 8.33337 75.1305 9.03575 76.3807 10.286C77.631 11.5362 78.3334 13.2319 78.3334 15V65C78.3334 66.7682 77.631 68.4638 76.3807 69.7141C75.1305 70.9643 73.4348 71.6667 71.6667 71.6667ZM75 15C75 14.116 74.6488 13.2681 74.0237 12.643C73.3986 12.0179 72.5507 11.6667 71.6667 11.6667H8.33335C7.4493 11.6667 6.60145 12.0179 5.97633 12.643C5.35121 13.2681 5.00002 14.116 5.00002 15V25H75V15ZM75 28.3334H5.00002V65C5.00002 65.8841 5.35121 66.7319 5.97633 67.3571C6.60145 67.9822 7.4493 68.3334 8.33335 68.3334H71.6667C72.5507 68.3334 73.3986 67.9822 74.0237 67.3571C74.6488 66.7319 75 65.8841 75 65V28.3334ZM68.3334 51.6667H65C64.558 51.6667 64.1341 51.4911 63.8215 51.1786C63.5089 50.866 63.3334 50.4421 63.3334 50V46.6667C63.3334 46.2247 63.5089 45.8008 63.8215 45.4882C64.1341 45.1756 64.558 45 65 45H68.3334C68.7754 45 69.1993 45.1756 69.5119 45.4882C69.8244 45.8008 70 46.2247 70 46.6667V50C70 50.4421 69.8244 50.866 69.5119 51.1786C69.1993 51.4911 68.7754 51.6667 68.3334 51.6667ZM68.3334 40H65C64.558 40 64.1341 39.8244 63.8215 39.5119C63.5089 39.1993 63.3334 38.7754 63.3334 38.3334V35C63.3334 34.558 63.5089 34.1341 63.8215 33.8215C64.1341 33.509 64.558 33.3334 65 33.3334H68.3334C68.7754 33.3334 69.1993 33.509 69.5119 33.8215C69.8244 34.1341 70 34.558 70 35V38.3334C70 38.7754 69.8244 39.1993 69.5119 39.5119C69.1993 39.8244 68.7754 40 68.3334 40ZM55 51.6667H51.6667C51.2247 51.6667 50.8007 51.4911 50.4882 51.1786C50.1756 50.866 50 50.4421 50 50V46.6667C50 46.2247 50.1756 45.8008 50.4882 45.4882C50.8007 45.1756 51.2247 45 51.6667 45H55C55.442 45 55.866 45.1756 56.1785 45.4882C56.4911 45.8008 56.6667 46.2247 56.6667 46.6667V50C56.6667 50.4421 56.4911 50.866 56.1785 51.1786C55.866 51.4911 55.442 51.6667 55 51.6667ZM55 40H51.6667C51.2247 40 50.8007 39.8244 50.4882 39.5119C50.1756 39.1993 50 38.7754 50 38.3334V35C50 34.558 50.1756 34.1341 50.4882 33.8215C50.8007 33.509 51.2247 33.3334 51.6667 33.3334H55C55.442 33.3334 55.866 33.509 56.1785 33.8215C56.4911 34.1341 56.6667 34.558 56.6667 35V38.3334C56.6667 38.7754 56.4911 39.1993 56.1785 39.5119C55.866 39.8244 55.442 40 55 40ZM41.6667 51.6667H38.3334C37.8913 51.6667 37.4674 51.4911 37.1548 51.1786C36.8423 50.866 36.6667 50.4421 36.6667 50V46.6667C36.6667 46.2247 36.8423 45.8008 37.1548 45.4882C37.4674 45.1756 37.8913 45 38.3334 45H41.6667C42.1087 45 42.5326 45.1756 42.8452 45.4882C43.1578 45.8008 43.3334 46.2247 43.3334 46.6667V50C43.3334 50.4421 43.1578 50.866 42.8452 51.1786C42.5326 51.4911 42.1087 51.6667 41.6667 51.6667ZM41.6667 40H38.3334C37.8913 40 37.4674 39.8244 37.1548 39.5119C36.8423 39.1993 36.6667 38.7754 36.6667 38.3334V35C36.6667 34.558 36.8423 34.1341 37.1548 33.8215C37.4674 33.509 37.8913 33.3334 38.3334 33.3334H41.6667C42.1087 33.3334 42.5326 33.509 42.8452 33.8215C43.1578 34.1341 43.3334 34.558 43.3334 35V38.3334C43.3334 38.7754 43.1578 39.1993 42.8452 39.5119C42.5326 39.8244 42.1087 40 41.6667 40ZM28.3334 63.3334H25C24.558 63.3334 24.1341 63.1578 23.8215 62.8452C23.5089 62.5327 23.3334 62.1087 23.3334 61.6667V58.3334C23.3334 57.8913 23.5089 57.4674 23.8215 57.1549C24.1341 56.8423 24.558 56.6667 25 56.6667H28.3334C28.7754 56.6667 29.1993 56.8423 29.5119 57.1549C29.8244 57.4674 30 57.8913 30 58.3334V61.6667C30 62.1087 29.8244 62.5327 29.5119 62.8452C29.1993 63.1578 28.7754 63.3334 28.3334 63.3334ZM28.3334 51.6667H25C24.558 51.6667 24.1341 51.4911 23.8215 51.1786C23.5089 50.866 23.3334 50.4421 23.3334 50V46.6667C23.3334 46.2247 23.5089 45.8008 23.8215 45.4882C24.1341 45.1756 24.558 45 25 45H28.3334C28.7754 45 29.1993 45.1756 29.5119 45.4882C29.8244 45.8008 30 46.2247 30 46.6667V50C30 50.4421 29.8244 50.866 29.5119 51.1786C29.1993 51.4911 28.7754 51.6667 28.3334 51.6667ZM28.3334 40H25C24.558 40 24.1341 39.8244 23.8215 39.5119C23.5089 39.1993 23.3334 38.7754 23.3334 38.3334V35C23.3334 34.558 23.5089 34.1341 23.8215 33.8215C24.1341 33.509 24.558 33.3334 25 33.3334H28.3334C28.7754 33.3334 29.1993 33.509 29.5119 33.8215C29.8244 34.1341 30 34.558 30 35V38.3334C30 38.7754 29.8244 39.1993 29.5119 39.5119C29.1993 39.8244 28.7754 40 28.3334 40ZM15 63.3334H11.6667C11.2247 63.3334 10.8007 63.1578 10.4882 62.8452C10.1756 62.5327 10 62.1087 10 61.6667V58.3334C10 57.8913 10.1756 57.4674 10.4882 57.1549C10.8007 56.8423 11.2247 56.6667 11.6667 56.6667H15C15.442 56.6667 15.866 56.8423 16.1785 57.1549C16.4911 57.4674 16.6667 57.8913 16.6667 58.3334V61.6667C16.6667 62.1087 16.4911 62.5327 16.1785 62.8452C15.866 63.1578 15.442 63.3334 15 63.3334ZM15 51.6667H11.6667C11.2247 51.6667 10.8007 51.4911 10.4882 51.1786C10.1756 50.866 10 50.4421 10 50V46.6667C10 46.2247 10.1756 45.8008 10.4882 45.4882C10.8007 45.1756 11.2247 45 11.6667 45H15C15.442 45 15.866 45.1756 16.1785 45.4882C16.4911 45.8008 16.6667 46.2247 16.6667 46.6667V50C16.6667 50.4421 16.4911 50.866 16.1785 51.1786C15.866 51.4911 15.442 51.6667 15 51.6667ZM38.3334 56.6667H41.6667C42.1087 56.6667 42.5326 56.8423 42.8452 57.1549C43.1578 57.4674 43.3334 57.8913 43.3334 58.3334V61.6667C43.3334 62.1087 43.1578 62.5327 42.8452 62.8452C42.5326 63.1578 42.1087 63.3334 41.6667 63.3334H38.3334C37.8913 63.3334 37.4674 63.1578 37.1548 62.8452C36.8423 62.5327 36.6667 62.1087 36.6667 61.6667V58.3334C36.6667 57.8913 36.8423 57.4674 37.1548 57.1549C37.4674 56.8423 37.8913 56.6667 38.3334 56.6667Z" fill="white"/>
</svg>
