<svg width="15" height="15" viewBox="0 0 15 15" fill="none" xmlns="http://www.w3.org/2000/svg">
<g clip-path="url(#clip0_7_39)">
<path d="M4.14062 6.74687C5.04405 8.51959 6.48598 9.96042 8.25938 10.8625L9.63438 9.48437C9.80625 9.3125 10.0531 9.2625 10.2688 9.33125C10.9688 9.5625 11.7219 9.6875 12.5 9.6875C12.8469 9.6875 13.125 9.96562 13.125 10.3125V12.5C13.125 12.8469 12.8469 13.125 12.5 13.125C6.63125 13.125 1.875 8.36875 1.875 2.5C1.875 2.33424 1.94085 2.17527 2.05806 2.05806C2.17527 1.94085 2.33424 1.875 2.5 1.875H4.6875C5.03437 1.875 5.3125 2.15312 5.3125 2.5C5.3125 3.27812 5.4375 4.03125 5.66875 4.73125C5.7375 4.94687 5.6875 5.19375 5.51562 5.36562L4.14062 6.74687Z" fill="#00ABC2"/>
</g>
<defs>
<clipPath id="clip0_7_39">
<rect width="15" height="15" fill="white"/>
</clipPath>
</defs>
</svg>
