<svg width="64" height="64" viewBox="0 0 64 64" fill="none" xmlns="http://www.w3.org/2000/svg">
<path d="M26.3362 36.0058C26.3362 36.0058 32.7823 42.3597 35.4067 42.8662L40.7938 37.4792C40.7938 37.4792 42.9118 35.4532 45.1679 37.5252L53.9621 46.3194C53.9621 46.3194 55.3895 48.9439 53.7319 50.5554L49.4499 54.8374C49.4499 54.8374 41.8988 59.6719 29.7895 51.9367C29.7895 51.9367 24.0801 48.9439 18.7852 43.5568" stroke="#00ABC2" stroke-width="4" stroke-miterlimit="10"/>
<path d="M26.7967 36.4662C26.7967 36.4662 20.4427 30.0201 19.8902 27.3957L25.2773 22.0086C25.2773 22.0086 27.3032 19.8906 25.2312 17.6345L16.3909 8.84027C16.3909 8.84027 13.7665 7.41294 12.155 9.07049L7.87295 13.3525C7.87295 13.3525 3.03841 20.9036 10.8197 33.0129C10.8197 33.0129 13.8125 38.7223 19.2456 44.0172" stroke="#00ABC2" stroke-width="4" stroke-miterlimit="10"/>
</svg>
