<svg width="80" height="80" viewBox="0 0 80 80" fill="none" xmlns="http://www.w3.org/2000/svg">
<path d="M16.6667 60H10C6.33333 60 3.33333 63 3.33333 66.6666C3.33333 70.3333 6.33333 73.3333 10 73.3333H16.6667C20.3333 73.3333 23.3333 70.3333 23.3333 66.6666C23.3333 63 20.3333 60 16.6667 60ZM43.3333 53.3333H36.6667C33 53.3333 30 56.3333 30 60V66.6666C30 70.3333 33 73.3333 36.6667 73.3333H43.3333C47 73.3333 50 70.3333 50 66.6666V60C50 56.3333 47 53.3333 43.3333 53.3333ZM70 40H63.3333C59.6667 40 56.6667 43 56.6667 46.6666V66.6666C56.6667 70.3333 59.6667 73.3333 63.3333 73.3333H70C73.6667 73.3333 76.6667 70.3333 76.6667 66.6666V46.6666C76.6667 43 73.6667 40 70 40ZM73.3333 6.66663H51.3333C48.3333 6.66663 47 10.3333 49 12.3333L55.3333 18.6666C43 32.6666 25.3333 43.3333 6.66666 43.3333C4.66666 43.3333 3.33333 44.6666 3.33333 46.6666C3.33333 48.6666 4.66666 50 6.66666 50C29 50 49.6667 43.6666 64.6667 28L70.6667 34C72.6667 36 76.3333 34.6666 76.3333 31.6666V9.99996C76.6667 7.99996 75.3333 6.66663 73.3333 6.66663Z" fill="white"/>
</svg>
