<svg width="15" height="15" viewBox="0 0 15 15" fill="none" xmlns="http://www.w3.org/2000/svg">
<path d="M14.4844 6.5625L13.125 5.20406V1.875C13.125 1.35938 12.7031 0.9375 12.1875 0.9375H11.25C10.7344 0.9375 10.3125 1.35938 10.3125 1.875V2.39344L8.4375 0.520312C8.18156 0.278438 7.94719 0 7.5 0C7.05281 0 6.81844 0.278438 6.5625 0.520312L0.515625 6.5625C0.223125 6.86719 0 7.08938 0 7.5C0 8.02781 0.405 8.4375 0.9375 8.4375H1.875V14.0625C1.875 14.5781 2.29688 15 2.8125 15H5.625V10.3125C5.625 9.79688 6.04688 9.375 6.5625 9.375H8.4375C8.95312 9.375 9.375 9.79688 9.375 10.3125V15H12.1875C12.7031 15 13.125 14.5781 13.125 14.0625V8.4375H14.0625C14.595 8.4375 15 8.02781 15 7.5C15 7.08938 14.7769 6.86719 14.4844 6.5625Z" fill="#00ABC2"/>
</svg>
