<svg width="64" height="64" viewBox="0 0 64 64" fill="none" xmlns="http://www.w3.org/2000/svg">
<path d="M32.765 47.25C32.4441 47.2501 32.1287 47.1679 31.8487 47.0112C27.3754 44.5085 23.6496 40.8591 21.0547 36.4385C18.4598 32.018 17.0896 26.9859 17.085 21.86C17.085 21.6517 17.0875 21.4433 17.0925 21.235C17.1925 16.5475 18.9437 12.5963 22.1575 9.81C24.9887 7.3525 28.7562 6 32.765 6C36.7737 6 40.54 7.3525 43.375 9.80875C46.5887 12.595 48.34 16.5462 48.44 21.2337C48.445 21.4421 48.4475 21.6504 48.4475 21.8587C48.4427 26.9852 47.072 32.0178 44.4764 36.4387C41.8809 40.8595 38.1542 44.5089 33.68 47.0112C33.4004 47.1677 33.0853 47.2499 32.765 47.25ZM32.765 9.75C29.6587 9.75 26.765 10.7762 24.6137 12.6412C22.2225 14.715 20.9175 17.7137 20.8412 21.3137V21.86C20.8452 26.1393 21.9434 30.3465 24.0314 34.0818C26.1195 37.817 29.1281 40.9563 32.7712 43.2012C36.4142 40.9562 39.4226 37.8169 41.5104 34.0816C43.5983 30.3463 44.6962 26.1392 44.7 21.86C44.7 21.6775 44.7 21.495 44.6937 21.3137C44.6175 17.7137 43.3125 14.715 40.9212 12.6412C38.765 10.7762 35.875 9.75 32.765 9.75Z" fill="#00ABC2"/>
<path d="M32.8033 30.925C31.0201 30.925 29.2769 30.3962 27.7942 29.4055C26.3114 28.4148 25.1558 27.0066 24.4734 25.3591C23.791 23.7116 23.6124 21.8987 23.9603 20.1498C24.3082 18.4008 25.1669 16.7942 26.4279 15.5333C27.6888 14.2723 29.2954 13.4136 31.0443 13.0657C32.7933 12.7178 34.6062 12.8964 36.2537 13.5788C37.9012 14.2612 39.3093 15.4169 40.3001 16.8996C41.2908 18.3823 41.8196 20.1255 41.8196 21.9087C41.8169 24.2992 40.8661 26.591 39.1758 28.2813C37.4855 29.9716 35.1938 30.9223 32.8033 30.925V30.925ZM32.8033 16.6437C31.7617 16.6437 30.7435 16.9526 29.8774 17.5314C29.0114 18.1101 28.3364 18.9326 27.9378 19.895C27.5393 20.8573 27.435 21.9163 27.6384 22.9378C27.8417 23.9594 28.3433 24.8978 29.08 25.6342C29.8166 26.3707 30.7551 26.8721 31.7767 27.0752C32.7983 27.2783 33.8572 27.1738 34.8195 26.775C35.7818 26.3762 36.6041 25.701 37.1827 24.8349C37.7612 23.9687 38.0698 22.9504 38.0696 21.9087C38.0679 20.5127 37.5125 19.1743 36.5252 18.1872C35.5379 17.2002 34.1994 16.6451 32.8033 16.6437V16.6437ZM32.7646 56.25C27.7058 56.25 22.9208 55.2425 19.2908 53.4137C15.2496 51.375 13.0283 48.5237 13.0283 45.375C13.0283 41.1987 16.9346 37.5925 23.4783 35.73C23.9532 35.6056 24.4579 35.6725 24.884 35.9161C25.3101 36.1598 25.6237 36.5608 25.7574 37.0331C25.8911 37.5054 25.8343 38.0113 25.5991 38.4422C25.3639 38.873 24.9691 39.1945 24.4996 39.3375C19.8058 40.6737 16.7733 43.0437 16.7733 45.375C16.7733 48.75 23.3383 52.5 32.7596 52.5C42.1808 52.5 48.7496 48.75 48.7496 45.375C48.7496 43.0437 45.7171 40.6737 41.0233 39.3375C40.7864 39.2701 40.5652 39.1567 40.3721 39.0038C40.1791 38.8509 40.018 38.6615 39.8982 38.4464C39.6561 38.0119 39.5966 37.499 39.7327 37.0206C39.8688 36.5422 40.1893 36.1375 40.6238 35.8955C41.0583 35.6534 41.5712 35.5939 42.0496 35.73C48.5933 37.5925 52.4996 41.1987 52.4996 45.375C52.4996 48.5237 50.2758 51.375 46.2371 53.4137C42.6071 55.2425 37.8221 56.25 32.7646 56.25Z" fill="#00ABC2"/>
</svg>
