<svg width="80" height="80" viewBox="0 0 80 80" fill="none" xmlns="http://www.w3.org/2000/svg">
<path d="M10 71.25H39.5275C43.3149 75.4834 48.565 78.1254 54.2215 78.6446C59.8781 79.1639 65.5214 77.5217 70.0162 74.0485C74.511 70.5753 77.5238 65.5289 78.4484 59.9243C79.373 54.3197 78.141 48.5729 75 43.84V8.75C75 8.41848 74.8683 8.10054 74.6339 7.86612C74.3995 7.6317 74.0815 7.5 73.75 7.5H16.25V2.5C16.25 2.16848 16.1183 1.85054 15.8839 1.61612C15.6495 1.3817 15.3315 1.25 15 1.25H10C7.68017 1.25265 5.45611 2.17537 3.81574 3.81574C2.17537 5.45611 1.25265 7.68017 1.25 10V62.5C1.25265 64.8198 2.17537 67.0439 3.81574 68.6843C5.45611 70.3246 7.68017 71.2474 10 71.25ZM26.875 39.9738L16.25 34.25V30.8438L27.52 36.9125C27.7019 37.0113 27.9056 37.0628 28.1125 37.0625C28.2681 37.0621 28.4223 37.0333 28.5675 36.9775C28.7355 36.9122 28.8873 36.8114 29.0127 36.6819C29.138 36.5525 29.2339 36.3975 29.2937 36.2275L38.3888 10H42L36.9325 24.59C36.8671 24.7783 36.8477 24.9795 36.8759 25.1768C36.9041 25.3741 36.979 25.5618 37.0945 25.7242C37.21 25.8867 37.3626 26.0191 37.5397 26.1106C37.7168 26.2021 37.9132 26.2499 38.1125 26.25H55C55.3315 26.25 55.6495 26.1183 55.8839 25.8839C56.1183 25.6495 56.25 25.3315 56.25 25V10H58.75V17.5C58.75 17.8315 58.8817 18.1495 59.1161 18.3839C59.3505 18.6183 59.6685 18.75 60 18.75H72.5V21.25H60C59.6685 21.25 59.3505 21.3817 59.1161 21.6161C58.8817 21.8505 58.75 22.1685 58.75 22.5V33.8975C57.92 33.8022 57.0854 33.753 56.25 33.75V30C56.25 29.6685 56.1183 29.3505 55.8839 29.1161C55.6495 28.8817 55.3315 28.75 55 28.75H36.375C36.115 28.7497 35.8614 28.8304 35.6495 28.9809C35.4375 29.1315 35.2778 29.3444 35.1925 29.59L27.3938 52.09C27.3283 52.2784 27.309 52.4797 27.3372 52.6771C27.3655 52.8745 27.4405 53.0623 27.5561 53.2247C27.6718 53.3872 27.8246 53.5197 28.0018 53.611C28.1791 53.7024 28.3756 53.7501 28.575 53.75H33.8975C33.8022 54.58 33.753 55.4146 33.75 56.25H26.8375C26.5777 56.2499 26.3244 56.3308 26.1127 56.4813C25.901 56.6318 25.7415 56.8446 25.6562 57.09L21.6112 68.75H18.0063L27.4688 41.485C27.5659 41.2037 27.5595 40.8969 27.4507 40.6198C27.3418 40.3428 27.1377 40.1137 26.875 39.9738ZM44.6387 10H53.75V23.75H39.875L44.6387 10ZM34.33 51.25H30.33L37.2625 31.25H53.75V33.8975C49.1151 34.4242 44.7579 36.3763 41.2795 39.4844C37.8011 42.5924 35.3729 46.7034 34.33 51.25ZM24.2563 68.75L27.7275 58.75H33.8975C34.2931 62.3293 35.5479 65.76 37.555 68.75H24.2563ZM56.25 76.25C52.2944 76.25 48.4276 75.077 45.1386 72.8794C41.8496 70.6818 39.2862 67.5582 37.7724 63.9037C36.2587 60.2491 35.8626 56.2278 36.6343 52.3482C37.406 48.4686 39.3108 44.9049 42.1079 42.1079C44.9049 39.3108 48.4686 37.406 52.3482 36.6343C56.2278 35.8626 60.2491 36.2587 63.9037 37.7724C67.5582 39.2862 70.6818 41.8496 72.8794 45.1386C75.077 48.4276 76.25 52.2944 76.25 56.25C76.2437 61.5524 74.1346 66.6358 70.3852 70.3852C66.6358 74.1346 61.5524 76.2437 56.25 76.25ZM61.25 34.33V23.75H72.5V40.73C69.4587 37.5396 65.5465 35.314 61.25 34.33ZM72.5 16.25H61.25V10H72.5V16.25ZM35.75 10L27.4137 34.015L16.25 28V10H35.75ZM3.75 10C3.75198 8.34301 4.4111 6.75445 5.58278 5.58278C6.75445 4.4111 8.34301 3.75198 10 3.75H13.75V53.75H10C8.83473 53.7497 7.68124 53.9831 6.60773 54.4363C5.53423 54.8896 4.56249 55.5535 3.75 56.3887V10ZM10 56.25H15C15.3315 56.25 15.6495 56.1183 15.8839 55.8839C16.1183 55.6495 16.25 55.3315 16.25 55V37.0925L24.7587 41.6713L15.3612 68.75H10C8.3424 68.75 6.75269 68.0915 5.58058 66.9194C4.40848 65.7473 3.75 64.1576 3.75 62.5C3.75 60.8424 4.40848 59.2527 5.58058 58.0806C6.75269 56.9085 8.3424 56.25 10 56.25Z" fill="white"/>
<path d="M65.8837 45.3649C65.766 45.2421 65.6233 45.146 65.4652 45.083C65.3071 45.0201 65.1374 44.9917 64.9675 44.9999C64.7978 45.0037 64.6307 45.0422 64.4766 45.1132C64.3224 45.1841 64.1844 45.286 64.0712 45.4124L53.7025 56.9337L48.3837 51.6162C48.1493 51.3818 47.8314 51.2502 47.5 51.2502C47.1685 51.2502 46.8506 51.3818 46.6162 51.6162L42.8662 55.3662C42.6319 55.6006 42.5002 55.9185 42.5002 56.2499C42.5002 56.5814 42.6319 56.8993 42.8662 57.1337L52.8662 67.1337C53.1006 67.3681 53.4185 67.4998 53.75 67.4999H53.775C53.9432 67.4963 54.1089 67.4588 54.2623 67.3897C54.4156 67.3205 54.5535 67.2211 54.6675 67.0974L69.6675 50.8474C69.8864 50.6103 70.0052 50.2977 69.9989 49.975C69.9926 49.6523 69.8618 49.3446 69.6337 49.1162L65.8837 45.3649ZM53.7137 64.4462L45.5175 56.2499L47.5 54.2674L52.8662 59.6337C52.9853 59.7548 53.1282 59.8499 53.2859 59.9129C53.4436 59.976 53.6127 60.0056 53.7825 59.9999C53.9521 59.9954 54.1191 59.9564 54.2732 59.8853C54.4273 59.8141 54.5652 59.7124 54.6787 59.5862L65.0475 48.0649L67.0162 50.0349L53.7137 64.4462Z" fill="white"/>
</svg>
