<svg width="80" height="80" viewBox="0 0 80 80" fill="none" xmlns="http://www.w3.org/2000/svg">
<g clip-path="url(#clip0_103_155)">
<path d="M55.72 78.2932C55.72 78.2143 55.7094 78.1348 55.6761 78.0614L49.7674 64.5077L45.2436 42.1139C45.2335 42.0667 45.2085 42.0276 45.1883 41.9851V35.34H51.1329V36.4122H50.2215C49.836 36.4122 49.5233 36.7256 49.5233 37.1107C49.5233 37.4959 49.836 37.8087 50.2215 37.8087H51.1329V38.4483H50.2215C49.836 38.4483 49.5233 38.7611 49.5233 39.1462C49.5233 39.5314 49.836 39.8439 50.2215 39.8439H51.1329V41.764C51.1329 42.0215 51.3404 42.2292 51.5979 42.2292H53.9244C54.1819 42.2292 54.3909 42.0215 54.3909 41.764V39.8439H55.4571C55.8427 39.8439 56.1553 39.5314 56.1553 39.1462C56.1553 38.7611 55.8427 38.4483 55.4571 38.4483H54.3909V37.8087H55.4571C55.8427 37.8087 56.1553 37.4953 56.1553 37.1107C56.1553 36.7262 55.8427 36.4122 55.4571 36.4122H54.3909V35.34H56.5234C56.7896 35.34 57.0214 35.159 57.0868 34.9002C57.1528 34.6422 57.0342 34.3725 56.799 34.2462L45.1883 27.9774V19.7935H51.1329V20.8658H50.2215C49.836 20.8658 49.5233 21.1791 49.5233 21.5637C49.5233 21.9486 49.836 22.2619 50.2215 22.2619H51.1329V22.902H50.2215C49.836 22.902 49.5233 23.2154 49.5233 23.6002C49.5233 23.9854 49.836 24.2987 50.2215 24.2987H51.1329V26.2183C51.1329 26.4748 51.3404 26.6834 51.5979 26.6834H53.9244C54.1819 26.6834 54.3909 26.4749 54.3909 26.2183V24.2987H55.4571C55.8427 24.2987 56.1553 23.9854 56.1553 23.6002C56.1553 23.2154 55.8427 22.902 55.4571 22.902H54.3909V22.2619H55.4571C55.8427 22.2619 56.1553 21.9486 56.1553 21.5637C56.1553 21.1791 55.8427 20.8658 55.4571 20.8658H54.3909V19.7935H56.5234C56.7896 19.7935 57.0214 19.6125 57.0868 19.3543C57.1528 19.0961 57.0342 18.8262 56.799 18.7003L45.1883 12.4315V8.14257C45.1883 8.04827 45.16 7.96191 45.1202 7.88234C45.0981 7.7941 45.0622 7.71121 45.0042 7.64507L40.4884 0.276702C40.3785 0.0980632 40.1835 -0.00605832 39.9721 7.01169e-06C39.7632 0.0078053 39.5731 0.126368 39.4768 0.312805L35.598 7.75843C35.5732 7.80595 35.5566 7.85678 35.5462 7.90805C35.5138 7.97982 35.494 8.05896 35.494 8.14315V17.0712L23.6727 23.4538C23.4382 23.5801 23.3202 23.85 23.3849 24.1083C23.4499 24.3665 23.6825 24.547 23.949 24.547H26.0815V25.6197H25.0153C24.6302 25.6197 24.3168 25.9331 24.3168 26.3179C24.3168 26.7031 24.6302 27.0164 25.0153 27.0164H26.0815V27.6565H25.0153C24.6302 27.6565 24.3168 27.9696 24.3168 28.3547C24.3168 28.7393 24.6302 29.0527 25.0153 29.0527H26.0815V30.9718C26.0815 31.2292 26.2898 31.4375 26.5465 31.4375H28.8731C29.1306 31.4375 29.3382 31.2292 29.3382 30.9718V29.0527H30.2494C30.6353 29.0527 30.9476 28.7393 30.9476 28.3547C30.9476 27.9696 30.6353 27.6565 30.2494 27.6565H29.3382V27.0164H30.2494C30.6353 27.0164 30.9476 26.7031 30.9476 26.3179C30.9476 25.9331 30.6353 25.6197 30.2494 25.6197H29.3382V24.547H35.4691C35.4771 24.547 35.4849 24.5429 35.4933 24.5422V42.1116L30.2737 64.5001L24.3621 78.0613C24.3298 78.1355 24.3172 78.2143 24.3172 78.2931H22.6852V79.9996H31.4103V78.2932H29.3288L38.461 65.2637H41.5764L50.5977 78.2932H48.5892V79.9997H57.3147V78.2932H55.72ZM55.4572 38.9133C55.5853 38.9133 55.689 39.0179 55.689 39.1462C55.689 39.2746 55.5852 39.3787 55.4572 39.3787H50.2217C50.0936 39.3787 49.9886 39.2746 49.9886 39.1462C49.9886 39.0179 50.0937 38.9133 50.2217 38.9133H55.4572ZM55.4572 36.8775C55.5853 36.8775 55.689 36.9816 55.689 37.11C55.689 37.2384 55.5852 37.3425 55.4572 37.3425H50.2217C50.0936 37.3425 49.9886 37.2377 49.9886 37.11C49.9886 36.9816 50.0937 36.8775 50.2217 36.8775H55.4572ZM55.4572 23.3668C55.5853 23.3668 55.689 23.471 55.689 23.5993C55.689 23.7277 55.5852 23.8321 55.4572 23.8321H50.2217C50.0936 23.8321 49.9886 23.7277 49.9886 23.5993C49.9886 23.471 50.0937 23.3668 50.2217 23.3668H55.4572ZM55.4572 21.3318C55.5853 21.3318 55.689 21.4352 55.689 21.5636C55.689 21.6927 55.5852 21.7961 55.4572 21.7961H50.2217C50.0936 21.7961 49.9886 21.6919 49.9886 21.5636C49.9886 21.4352 50.0937 21.3318 50.2217 21.3318H55.4572ZM30.2508 28.1202C30.3792 28.1202 30.4841 28.2243 30.4841 28.3534C30.4841 28.4818 30.3792 28.5852 30.2508 28.5852H25.016C24.8876 28.5852 24.7835 28.4811 24.7835 28.3534C24.7835 28.2243 24.8876 28.1202 25.016 28.1202H30.2508ZM30.2508 26.084C30.3792 26.084 30.4841 26.1881 30.4841 26.3165C30.4841 26.4449 30.3792 26.549 30.2508 26.549H25.016C24.8876 26.549 24.7835 26.4449 24.7835 26.3165C24.7835 26.1881 24.8876 26.084 25.016 26.084H30.2508ZM33.4337 64.0997L39.958 61.1585L46.1892 64.0997H33.4337ZM33.0122 57.881L38.8516 60.6376L31.6083 63.9023L33.0122 57.881ZM44.0256 40.6322L37.5417 36.3433L44.0256 32.9619V40.6322ZM36.6577 29.2905C36.6837 29.3077 36.7093 29.3259 36.7396 29.3386L43.5572 32.1565L36.6577 35.7553V29.2905ZM37.9355 28.8261L44.0256 25.0559V31.3438L37.9355 28.8261ZM44.0256 23.7646L37.215 20.7417L44.0256 17.4129V23.7646ZM44.0256 15.8546L37.1497 12.4588L44.0256 9.24285V15.8546ZM42.9365 8.72456L36.6577 11.661V8.72456H42.9365ZM36.6577 13.2533L43.5014 16.633L36.6577 19.9776V13.2533ZM43.252 24.4394L36.6723 28.5133C36.6665 28.5166 36.6625 28.5217 36.6577 28.5257V21.5109L43.252 24.4394ZM36.6577 36.8749L43.8727 41.648H36.6577V36.8749ZM36.5256 42.8106H44.1969L44.7071 45.3388H35.9362L36.5256 42.8106ZM41.4303 53.9893L46.0659 52.0624L46.9288 56.3334L41.4303 53.9893ZM46.5302 57.1746L39.9669 60.134L33.7293 57.19L40.2292 54.4881L46.5302 57.1746ZM40.234 53.4778L35.2097 51.3351L40.2794 48.8109L45.3934 51.3316L40.234 53.4778ZM41.3264 48.2909L44.9396 46.4899L45.7444 50.4685L41.3264 48.2909ZM40.2766 47.7733L37.2268 46.2695H43.2956L40.2766 47.7733ZM35.6575 46.5331L39.2303 48.2949L34.7243 50.5385L35.6575 46.5331ZM34.3841 51.9958L39.0324 53.978L33.3738 56.33L34.3841 51.9958ZM48.3694 64.0997L41.073 60.6564L47.2406 57.8754L48.499 64.0997H48.3694ZM54.221 34.1763H45.1898V29.2996L54.221 34.1763ZM54.221 18.6304H45.1898V13.7537L54.221 18.6304ZM40.0329 1.76054L43.5169 7.44419H37.0729L40.0329 1.76054ZM35.4705 23.3827H26.2513L35.4946 18.3928V23.3878C35.4857 23.3878 35.4789 23.3827 35.4705 23.3827ZM28.3154 77.7124H25.7833L31.2095 65.2639H37.0398L28.3154 77.7124ZM48.8285 65.2639L54.2547 77.7124H51.6088L42.9904 65.2639H48.8285Z" fill="white"/>
</g>
<defs>
<clipPath id="clip0_103_155">
<rect width="80" height="80" fill="white"/>
</clipPath>
</defs>
</svg>
