<svg width="80" height="80" viewBox="0 0 80 80" fill="none" xmlns="http://www.w3.org/2000/svg">
<path d="M77.6562 41.7188H68.2812C66.9869 41.7188 65.9375 42.7681 65.9375 44.0625V45.3906H56.3552C54.6795 43.7949 52.572 42.4658 50.1564 41.4799V35.4897C50.1564 34.1953 49.107 33.1459 47.8127 33.1459H47.0312V24.8733H54.4531C58.3302 24.8733 61.4844 21.7191 61.4844 17.842C61.4844 13.965 58.3302 10.8108 54.4531 10.8108H25.5469C21.6698 10.8108 18.5156 13.965 18.5156 17.842C18.5156 21.7191 21.6698 24.8733 25.5469 24.8733H32.9688V33.1459H32.1875C30.8931 33.1459 29.8438 34.1953 29.8438 35.4897V41.4799C27.4281 42.466 25.3205 43.7949 23.6448 45.3906H14.0625V44.0625C14.0625 42.7681 13.0131 41.7188 11.7188 41.7188H2.34375C1.04937 41.7188 0 42.7681 0 44.0625V64.6875C0 65.9819 1.04937 67.0313 2.34375 67.0313H11.7188C13.0131 67.0313 14.0625 65.9819 14.0625 64.6875V63.3594H23.6447C27.4936 67.0264 33.5153 69.1894 40 69.1894C46.4847 69.1894 52.5066 67.0264 56.3553 63.3594H65.9375V64.6875C65.9375 65.9819 66.9869 67.0313 68.2812 67.0313H77.6562C78.9506 67.0313 80 65.9819 80 64.6875V44.0625C80 42.7681 78.9506 41.7188 77.6562 41.7188ZM23.2031 17.8419C23.2031 16.5495 24.2545 15.4981 25.5469 15.4981H54.4531C55.7455 15.4981 56.7969 16.5495 56.7969 17.8419C56.7969 19.1342 55.7455 20.1856 54.4531 20.1856H25.5469C24.2545 20.1856 23.2031 19.1344 23.2031 17.8419ZM37.6562 24.8731H42.3438V33.1458H37.6562V24.8731ZM9.375 62.3438H4.6875V46.4063H9.375V62.3438ZM55.3742 58.6719C54.7178 58.6719 54.0917 58.9472 53.6478 59.4305C50.7759 62.5586 45.5464 64.5017 40.0002 64.5017C34.4539 64.5017 29.2244 62.5584 26.3525 59.4305C25.9086 58.947 25.2823 58.6719 24.6261 58.6719H14.0625V50.0781H24.6258C25.2822 50.0781 25.9083 49.8028 26.3522 49.3195C27.9208 47.6109 30.1909 46.2356 32.9173 45.3419C33.88 45.0263 34.5311 44.1278 34.5311 43.1147V37.8334H45.4688V43.1147C45.4688 44.1278 46.1197 45.0263 47.0825 45.3419C49.8089 46.2356 52.0791 47.6109 53.6475 49.3195C54.0914 49.803 54.7177 50.0781 55.3741 50.0781H65.9375V58.6719H55.3742ZM75.3125 62.3438H70.625V46.4063H75.3125V62.3438Z" fill="white"/>
</svg>
