<svg width="80" height="80" viewBox="0 0 80 80" fill="none" xmlns="http://www.w3.org/2000/svg">
<g clip-path="url(#clip0_104_177)">
<path d="M79.8999 77.4103C78.7299 65.9696 67.8082 59.2538 57.649 62.2415C54.7145 58.6828 50.9323 55.9858 46.6607 54.3814L52.6585 48.3825C53.5773 47.4636 53.5771 45.9741 52.6584 45.0552L45.4493 37.8461L72.2912 11.0042L75.9516 14.6645C76.8703 15.5834 78.3601 15.5834 79.279 14.6645C80.1979 13.7458 80.1979 12.256 79.279 11.3371L68.6311 0.688982C67.7123 -0.229745 66.2225 -0.229902 65.3036 0.688982C64.3847 1.60787 64.3847 3.09756 65.3036 4.01645L68.9638 7.67661L42.1219 34.5187L34.913 27.3098C33.9943 26.3911 32.5046 26.3909 31.5857 27.3096L22.7117 36.1821C16.9132 41.9824 16.9035 51.4116 22.6808 57.2237C19.98 59.0549 17.6434 61.3759 15.7822 64.0799C7.75023 63.5917 0.998365 69.4862 0.0812061 77.1691C-0.221533 78.6393 0.904562 79.9983 2.38547 79.9983C41.6142 79.9983 77.5382 79.9999 77.5587 79.9999C78.9052 79.9999 80.0279 78.8602 79.8999 77.4103ZM74.7199 75.2925H50.3842C51.4631 71.6667 54.1194 68.6807 57.7218 67.1976C64.7693 64.2869 72.5904 68.2809 74.7199 75.2925ZM26.0391 39.5092L33.249 32.3008L38.7945 37.8461L33.3598 43.2809C32.4409 44.1998 32.4409 45.6895 33.3598 46.6084C34.2785 47.5273 35.7683 47.5274 36.6872 46.6084L42.1219 41.1735L47.6676 46.719C41.0843 53.3032 41.3919 53.0059 41.3668 53.0022C36.5967 52.2818 31.6451 52.8536 27.0603 54.8234C22.1333 51.0489 21.7123 43.8375 26.0391 39.5092ZM53.1768 64.275C49.2559 66.7707 46.5035 70.7235 45.5335 75.2925H29.3148C28.1774 70.7965 24.9866 67.0883 20.7702 65.2662C29.0361 55.2175 44.3111 54.7284 53.1768 64.275ZM24.388 75.2925H5.35012C8.65469 66.6191 21.0297 66.5657 24.388 75.2925Z" fill="white"/>
</g>
<defs>
<clipPath id="clip0_104_177">
<rect width="80" height="80" fill="white"/>
</clipPath>
</defs>
</svg>
