<svg width="80" height="80" viewBox="0 0 80 80" fill="none" xmlns="http://www.w3.org/2000/svg">
<g clip-path="url(#clip0_52_132)">
<path d="M80 36.7801C80 35.6857 79.7844 34.6021 79.3657 33.591C78.9469 32.58 78.333 31.6613 77.5592 30.8875C76.7854 30.1137 75.8667 29.4998 74.8557 29.0811C73.8447 28.6623 72.761 28.4467 71.6667 28.4467H50.63C50.4984 28.4464 50.3688 28.415 50.2517 28.355C50.1346 28.295 50.0333 28.2081 49.9563 28.1014C49.8792 27.9948 49.8285 27.8714 49.8083 27.7414C49.7881 27.6114 49.7989 27.4784 49.84 27.3534C51.6803 22.6895 52.2775 17.6275 51.5733 12.6634C49.6133 5.68005 45.46 3.66338 42.21 4.11338C40.6138 4.38497 39.1709 5.2282 38.1509 6.48564C37.1308 7.74309 36.6032 9.32879 36.6667 10.9467C36.6667 20.1 29.57 30.1001 23.22 34.4834C22.9977 34.6368 22.816 34.842 22.6906 35.0812C22.5651 35.3205 22.4997 35.5866 22.5 35.8567V69.5767C22.4999 69.9639 22.6346 70.339 22.8809 70.6376C23.1273 70.9362 23.4699 71.1398 23.85 71.2134C25.04 71.4434 26.12 71.6634 27.14 71.8801C31.6253 72.9487 36.2226 73.4758 40.8333 73.4501H62.5C69.0233 73.4501 70 69.7834 70 67.6167C70.0006 66.4675 69.736 65.3336 69.2267 64.3034C70.9872 63.4114 72.3248 61.8609 72.9489 59.9886C73.573 58.1162 73.4333 56.0733 72.56 54.3034C73.7952 53.6759 74.8327 52.7187 75.5575 51.538C76.2823 50.3572 76.6662 48.9989 76.6667 47.6134C76.6688 46.3647 76.3558 45.1356 75.7567 44.0401C77.0441 43.3148 78.1156 42.2603 78.8612 40.9845C79.6069 39.7088 79.9999 38.2577 80 36.7801ZM17.5 35.9467C17.5 35.0627 17.1488 34.2148 16.5237 33.5897C15.8986 32.9646 15.0507 32.6134 14.1667 32.6134H3.33333C2.44928 32.6134 1.60143 32.9646 0.976311 33.5897C0.35119 34.2148 0 35.0627 0 35.9467L0 72.6134C0 73.4974 0.35119 74.3453 0.976311 74.9704C1.60143 75.5955 2.44928 75.9467 3.33333 75.9467H14.1667C15.0507 75.9467 15.8986 75.5955 16.5237 74.9704C17.1488 74.3453 17.5 73.4974 17.5 72.6134V35.9467ZM12.5 66.7801C12.5 67.2745 12.3534 67.7579 12.0787 68.169C11.804 68.5801 11.4135 68.9005 10.9567 69.0898C10.4999 69.279 9.99723 69.3285 9.51227 69.232C9.02732 69.1356 8.58186 68.8974 8.23223 68.5478C7.8826 68.1982 7.6445 67.7527 7.54804 67.2678C7.45157 66.7828 7.50108 66.2802 7.6903 65.8233C7.87952 65.3665 8.19995 64.9761 8.61107 64.7014C9.0222 64.4267 9.50555 64.2801 10 64.2801C10.663 64.2801 11.2989 64.5434 11.7678 65.0123C12.2366 65.4811 12.5 66.117 12.5 66.7801Z" fill="white"/>
</g>
<defs>
<clipPath id="clip0_52_132">
<rect width="80" height="80" fill="white"/>
</clipPath>
</defs>
</svg>
