<svg width="80" height="80" viewBox="0 0 80 80" fill="none" xmlns="http://www.w3.org/2000/svg">
<g clip-path="url(#clip0_52_124)">
<path d="M13.5825 64.0664C16.5413 64.0664 18.94 59.5814 18.94 56.6226C18.94 55.2017 18.3756 53.839 17.3708 52.8343C16.3661 51.8296 15.0034 51.2651 13.5825 51.2651C12.1616 51.2651 10.7989 51.8296 9.79418 52.8343C8.78946 53.839 8.22501 55.2017 8.22501 56.6226C8.22501 59.5814 10.625 64.0664 13.5825 64.0664ZM18.4063 64.7926H15.8475L13.58 69.1301L11.3113 64.7926H8.75001C6.95001 64.7946 5.22429 65.5105 3.95139 66.7831C2.67848 68.0558 1.96232 69.7814 1.96001 71.5814V80.0001H25.2025V71.5814C25.1995 69.7803 24.4821 68.054 23.2077 66.7812C21.9334 65.5085 20.2061 64.7933 18.405 64.7926H18.4063ZM22.6638 77.4601H4.50001V71.5814C4.50001 69.2389 6.40626 67.3314 8.75001 67.3314H9.77251L12.36 72.2639L12.7288 73.0789L14.39 73.0501L17.3838 67.3326H18.405C19.5328 67.333 20.6144 67.7806 21.4125 68.5773C22.2106 69.3741 22.6602 70.4549 22.6625 71.5826V77.4601H22.6638ZM34.6425 56.6226C34.6425 59.5814 37.0413 64.0664 40 64.0664C42.9588 64.0664 45.3575 59.5814 45.3575 56.6226C45.3575 55.2017 44.7931 53.839 43.7883 52.8343C42.7836 51.8296 41.4209 51.2651 40 51.2651C38.5791 51.2651 37.2164 51.8296 36.2117 52.8343C35.207 53.839 34.6425 55.2017 34.6425 56.6226ZM44.825 64.7926H42.265L39.995 69.1251L37.7275 64.7926H35.1688C33.3685 64.7943 31.6425 65.51 30.3693 66.7827C29.0961 68.0554 28.3798 69.7812 28.3775 71.5814V80.0001H51.6213V71.5814C51.6183 69.7803 50.9009 68.054 49.6265 66.7812C48.3521 65.5085 46.6248 64.7933 44.8238 64.7926H44.825ZM49.0813 77.4601H30.9188V71.5814C30.9188 69.2389 32.825 67.3314 35.1688 67.3314H36.19L38.7775 72.2639L39.1525 73.0914L40.9175 73.0389L41.1975 72.3026L43.8025 67.3326H44.8238C45.9515 67.333 47.0331 67.7806 47.8312 68.5773C48.6294 69.3741 49.0789 70.4549 49.0813 71.5826V77.4601ZM40 17.0614C43.9438 17.0614 47.14 11.0839 47.14 7.14014C47.14 5.24633 46.3877 3.43008 45.0486 2.09095C43.7094 0.751825 41.8932 -0.000488281 39.9994 -0.000488281C38.1056 -0.000488281 36.2893 0.751825 34.9502 2.09095C33.6111 3.43008 32.8588 5.24633 32.8588 7.14014C32.8588 11.0839 36.0563 17.0614 40 17.0614ZM61.06 56.6226C61.06 59.5814 63.4588 64.0664 66.4175 64.0664C69.3763 64.0664 71.7738 59.5814 71.7738 56.6226C71.7846 55.9123 71.6541 55.2069 71.3897 54.5474C71.1254 53.888 70.7325 53.2877 70.234 52.7815C69.7355 52.2753 69.1413 51.8734 68.486 51.599C67.8307 51.3246 67.1273 51.1833 66.4169 51.1833C65.7064 51.1833 65.0031 51.3246 64.3478 51.599C63.6924 51.8734 63.0982 52.2753 62.5997 52.7815C62.1012 53.2877 61.7084 53.888 61.444 54.5474C61.1797 55.2069 61.0492 55.9123 61.06 56.6226ZM71.2413 64.7926H68.6813L66.4125 69.1251L64.1438 64.7926H61.585C59.785 64.7946 58.0593 65.5105 56.7864 66.7831C55.5135 68.0558 54.7973 69.7814 54.795 71.5814V80.0001H78.0388V71.5814C78.0358 69.7803 77.3184 68.054 76.044 66.7812C74.7696 65.5085 73.0424 64.7933 71.2413 64.7926ZM75.5 77.4601H57.3375V71.5814C57.3375 69.2389 59.2425 67.3314 61.5863 67.3314H62.6075L65.225 72.3276L65.54 73.0789L67.3325 73.0501L67.6163 72.3026L70.2213 67.3326H71.2425C72.3703 67.333 73.4519 67.7806 74.25 68.5773C75.0481 69.3741 75.4977 70.4549 75.5 71.5826V77.4601ZM67.6863 40.8339V48.0339H65.1463V43.3726H41.2725V48.0339H38.7338V43.3726H14.8475V48.0339H12.3075V40.8339H38.7325V37.8751H24.9313V27.0814C24.9336 24.792 25.8441 22.597 27.4629 20.9781C29.0818 19.3592 31.2768 18.4487 33.5663 18.4464H36.7163L39.9913 24.7189L43.2813 18.4464H46.43C48.7194 18.4487 50.9144 19.3592 52.5333 20.9781C54.1522 22.597 55.0627 24.792 55.065 27.0814V37.8751H41.2725V40.8339H67.685H67.6863Z" fill="white"/>
</g>
<defs>
<clipPath id="clip0_52_124">
<rect width="80" height="80" fill="white"/>
</clipPath>
</defs>
</svg>
