<svg width="80" height="80" viewBox="0 0 80 80" fill="none" xmlns="http://www.w3.org/2000/svg">
<g clip-path="url(#clip0_104_173)">
<path d="M67.6418 13.8015L62.177 8.33725C61.8401 7.99825 61.3221 7.91483 60.896 8.13109L51.9695 12.6528C50.114 11.6475 48.156 10.8425 46.1295 10.2517L42.8597 0.736445C42.7024 0.29384 42.2837 -0.00105345 41.814 9.22876e-06H34.066C33.5942 -0.00530416 33.1707 0.291183 33.0129 0.736445L29.9125 10.2814C27.8902 10.8701 25.9392 11.6804 24.0944 12.6969L15.0579 8.27774C14.6333 8.07105 14.1238 8.15712 13.7912 8.49187L8.30404 13.9785C7.96929 14.3222 7.89491 14.843 8.12019 15.267L12.6568 24.186C11.6531 26.0393 10.8507 27.9947 10.2631 30.0185L0.755305 33.2815C0.3127 33.4382 0.0172752 33.8575 0.0188692 34.3272V42.082C0.0135558 42.5544 0.309512 42.9779 0.755305 43.1352L10.278 46.2361C10.8667 48.2621 11.6791 50.2158 12.7009 52.0617L8.28172 61.0981C8.07503 61.5221 8.16111 62.0317 8.49532 62.3648L13.975 67.8366C14.3119 68.1756 14.8299 68.259 15.2561 68.0427L24.1751 63.5136C26.03 64.5285 27.9907 65.3366 30.0225 65.9222L33.2924 75.4225C33.4496 75.8651 33.8683 76.16 34.338 76.1589H42.0712C42.543 76.1642 42.9665 75.8678 43.1243 75.4225L46.2252 65.8998C48.3186 65.2883 50.3351 64.4376 52.2346 63.3664L66.5 77.5654C68.0223 79.0951 70.0865 79.9628 72.2443 79.9809C74.1948 79.9952 76.0699 79.2285 77.4514 77.8528C80.3971 74.9066 80.2648 69.9943 77.164 66.894L62.9947 52.7465C63.0755 52.6738 63.1451 52.5893 63.2009 52.4963C64.3539 50.49 65.2593 48.3508 65.8964 46.1255L75.4116 42.8706C75.8542 42.7133 76.1496 42.2946 76.148 41.8243V34.1136C76.1533 33.6417 75.8574 33.2183 75.4116 33.0604L65.8666 29.9229C65.2763 27.898 64.4639 25.9437 63.4437 24.0973L67.8629 15.0682C68.068 14.6426 67.9792 14.1331 67.6418 13.8015ZM75.8755 76.3284C74.8962 77.2944 73.5689 77.8263 72.1933 77.8013C70.6195 77.7827 69.1163 77.1451 68.0101 76.0261L43.4192 51.3985C44.7045 50.8635 45.9053 50.1435 46.9839 49.2631L68.9085 71.1877C69.3549 71.6038 70.0536 71.5788 70.4701 71.1325C70.8655 70.7085 70.8655 70.0507 70.4701 69.6267L48.5742 47.7312C49.5997 46.6064 50.4397 45.3264 51.0635 43.9385L75.6103 68.4922C77.8388 70.5868 77.9578 74.0878 75.8755 76.3284ZM54.4737 44.2255L51.8738 41.6256C53.8743 33.8877 49.2224 25.9931 41.4846 23.9931C38.9442 23.3359 36.2732 23.3821 33.7568 24.127C33.1718 24.3013 32.8397 24.9166 33.0134 25.5011C33.066 25.678 33.1622 25.838 33.2929 25.9681L39.8767 32.5525L40.2157 36.5072L36.533 40.1894L32.5783 39.851L25.9498 33.2225C25.5184 32.7916 24.8191 32.7921 24.3877 33.2241C24.2628 33.3495 24.1698 33.503 24.1161 33.672C21.7145 41.2861 25.9397 49.4066 33.5543 51.8082C35.9751 52.5717 38.5548 52.6849 41.0329 52.1355L43.5961 54.7348C34.4098 57.8022 24.4764 52.8422 21.4095 43.6564C18.3432 34.4701 23.3027 24.5367 32.4885 21.4698C41.6748 18.4035 51.6082 23.363 54.6745 32.5488C55.9444 36.3494 55.8727 40.47 54.4737 44.2255ZM46.5418 46.685C41.7582 51.4788 33.9937 51.4873 29.2 46.7036C26.4418 43.9513 25.156 40.0518 25.7362 36.1975L31.2669 41.7287C31.4513 41.9115 31.6936 42.0231 31.9523 42.0454L36.8274 42.4651C37.1525 42.4954 37.4735 42.3791 37.7041 42.1485L42.1227 37.7293C42.3528 37.4982 42.4681 37.1778 42.4394 36.8531L42.0196 31.985C41.9978 31.7263 41.8857 31.484 41.7029 31.3001L36.2679 25.8651C36.7928 25.7965 37.322 25.7625 37.8513 25.762C44.628 25.7662 50.1172 31.2635 50.113 38.0396C50.1114 41.2803 48.8277 44.3881 46.5418 46.685ZM61.2052 23.6483C61.0437 23.9793 61.0575 24.3688 61.2419 24.6865C62.4039 26.6892 63.2981 28.8363 63.9007 31.0722C64.0075 31.4245 64.2843 31.7018 64.6371 31.8086L73.9462 34.85V41.0146L64.6297 44.2329C64.2769 44.3397 64 44.6165 63.8932 44.9693C63.3183 47.1239 62.4751 49.1972 61.3816 51.1408L56.1676 45.8971C60.4858 35.893 55.8764 24.2817 45.8723 19.964C35.8678 15.6458 24.2564 20.2546 19.9388 30.2592C15.6206 40.2633 20.2294 51.8746 30.234 56.1923C35.0336 58.264 40.4591 58.3469 45.3192 56.4213L50.6071 61.7092C48.8532 62.6544 46.9977 63.3951 45.0759 63.919C44.7231 64.0253 44.4462 64.3026 44.3394 64.6554L41.2609 73.9496H35.1117L31.9151 64.6406C31.8083 64.2878 31.5315 64.0109 31.1787 63.9041C28.937 63.3085 26.7835 62.4217 24.7713 61.2676C24.4429 61.088 24.0465 61.088 23.7182 61.2676L14.9835 65.6862L10.609 61.3633L14.932 52.5255C15.0935 52.195 15.0797 51.8055 14.8953 51.4873C13.7333 49.4852 12.8422 47.3381 12.2439 45.1022C12.1371 44.7494 11.8603 44.4725 11.5075 44.3652L2.22818 41.2797V35.1151L11.5075 31.9043C11.8603 31.7975 12.1371 31.5206 12.2439 31.1678C12.847 28.9288 13.7333 26.7752 14.8804 24.7604C15.0558 24.4342 15.0558 24.041 14.8804 23.7147L10.4395 14.9652L14.7997 10.6055L23.6374 14.9211C23.9621 15.0943 24.351 15.0943 24.6756 14.9211C26.6788 13.7627 28.8259 12.8712 31.0607 12.2702C31.4136 12.1634 31.6904 11.8861 31.7972 11.5333L34.8391 2.20985H40.9963L44.2071 11.5115C44.3139 11.8643 44.5908 12.1411 44.9436 12.2479C47.1848 12.8547 49.3404 13.7431 51.3584 14.8918C51.6847 15.0672 52.0779 15.0672 52.4041 14.8918L61.1313 10.4727L65.4766 14.8329L61.2052 23.6483Z" fill="white"/>
</g>
<defs>
<clipPath id="clip0_104_173">
<rect width="80" height="80" fill="white"/>
</clipPath>
</defs>
</svg>
